<?xml version="1.0"?>
<svg xmlns="http://www.w3.org/2000/svg" height="512px" viewBox="0 -46 512 512" width="512px"><path d="m256 240c49.625 0 90-40.375 90-90s-40.375-90-90-90-90 40.375-90 90 40.375 90 90 90zm0-150c33.085938 0 60 26.914062 60 60s-26.914062 60-60 60-60-26.914062-60-60 26.914062-60 60-60zm0 0" fill="#FFFFFF"/><path d="m105 195c24.8125 0 45-20.1875 45-45s-20.1875-45-45-45-45 20.1875-45 45 20.1875 45 45 45zm0-60c8.269531 0 15 6.730469 15 15s-6.730469 15-15 15-15-6.730469-15-15 6.730469-15 15-15zm0 0" fill="#FFFFFF"/><path d="m407 195c24.8125 0 45-20.1875 45-45s-20.1875-45-45-45-45 20.1875-45 45 20.1875 45 45 45zm0-60c8.269531 0 15 6.730469 15 15s-6.730469 15-15 15-15-6.730469-15-15 6.730469-15 15-15zm0 0" fill="#FFFFFF"/><path d="m15 420h482c8.285156 0 15-6.714844 15-15 0-11.503906 0-372.007812 0-390 0-8.285156-6.714844-15-15-15h-482c-8.285156 0-15 6.714844-15 15v390c0 8.285156 6.714844 15 15 15zm73.492188-390h335.015624c5.980469 29.34375 29.148438 52.511719 58.492188 58.492188v123.015624c-29.34375 5.980469-52.511719 29.148438-58.492188 58.492188h-335.015624c-5.980469-29.34375-29.148438-52.511719-58.492188-58.492188v-123.015624c29.34375-5.980469 52.511719-29.148438 58.492188-58.492188zm-58.492188 212.578125c12.765625 4.527344 22.894531 14.65625 27.421875 27.421875h-27.421875zm452 57.421875v30h-452v-30zm0-30h-27.421875c4.527344-12.765625 14.65625-22.894531 27.421875-27.421875zm-452 120v-30h452v30zm452-332.578125c-12.765625-4.527344-22.894531-14.65625-27.421875-27.421875h27.421875zm-424.578125-27.421875c-4.527344 12.765625-14.65625 22.894531-27.421875 27.421875v-27.421875zm0 0" fill="#FFFFFF"/></svg>
